<svg viewBox="169.6 1.4 59 51.4" xmlns="http://www.w3.org/2000/svg" role="img" aria-label="Meltingplot elephant mark">
  <path d="M 57.458,43.648 L 57.458,35.920 L 57.458,14.003 A 14.000,14.000 0 0,0 43.458,0.003 L 14.010,0.003 A 14.000,14.000 0 0,0 0.001,14.003 L 0.001,40.208 A 14.000,14.000 0 0,0 14.001,54.208 L 30.755,54.208 A 14.000,14.000 0 0,0 44.755,40.208 L 44.755,35.917 L 51.253,35.917 L 51.253,43.853 A 10.358,10.358 0 0,0 61.881,54.208 L 61.881,48.006 A 4.358,4.358 0 0,1 57.458,43.648 Z" fill="#FFFFFF" transform="translate(170.204,1.873) scale(0.936426)"></path>
  <path d="M 30.553,48.009 L 14.205,48.009 A 8.000,8.000 0 0,1 6.205,40.009 L 6.205,14.210 A 8.000,8.000 0 0,1 14.205,6.210 L 20.665,6.210 L 20.665,21.925 A 14.000,14.000 0 0,0 34.665,35.925 L 38.553,35.925 L 38.553,40.009 A 8.000,8.000 0 0,1 30.553,48.009 Z" fill="#009AD7" transform="translate(170.204,1.873) scale(0.936426)"></path>
  <path d="M 51.256,14.207 L 51.256,29.715 L 34.869,29.715 A 8.000,8.000 0 0,1 26.869,21.715 L 26.869,6.207 L 43.256,6.207 A 8.000,8.000 0 0,1 51.256,14.207 Z" fill="#009AD7" transform="translate(170.204,1.873) scale(0.936426)"></path>
  <path d="M 44.695,22.468 L 36.695,22.468 A 4.000,4.000 0 0,1 44.695,22.468 Z" fill="#FFFFFF" transform="translate(170.204,1.873) scale(0.936426)"></path>
</svg>